<svg width="1280" height="880" viewBox="0 0 1280 880" xmlns="http://www.w3.org/2000/svg" fill="none">
  <rect width="1280" height="880" fill="#F4F4F4"/>
  <rect x="190" y="80" width="900" height="720" rx="24" fill="#FFFFFF" stroke="#D4AF37" stroke-opacity="0.35" stroke-width="2"/>
  <rect x="250" y="150" width="290" height="26" rx="6" fill="#F2F2F2"/>
  <rect x="250" y="190" width="180" height="16" rx="4" fill="#EAEAEA"/>

  <rect x="250" y="260" width="780" height="1" fill="#E7E7E7"/>

  <rect x="250" y="300" width="220" height="14" rx="4" fill="#ECECEC"/>
  <rect x="250" y="330" width="300" height="12" rx="4" fill="#F2F2F2"/>
  <rect x="250" y="352" width="270" height="12" rx="4" fill="#F2F2F2"/>

  <rect x="250" y="402" width="420" height="42" rx="8" fill="#FAFAFA" stroke="#E5E5E5"/>
  <rect x="250" y="462" width="420" height="42" rx="8" fill="#FAFAFA" stroke="#E5E5E5"/>
  <rect x="250" y="522" width="420" height="42" rx="8" fill="#FAFAFA" stroke="#E5E5E5"/>

  <rect x="700" y="402" width="330" height="162" rx="12" fill="#FFFFFF" stroke="#E5E5E5"/>
  <rect x="726" y="430" width="140" height="12" rx="4" fill="#ECECEC"/>
  <rect x="726" y="454" width="250" height="10" rx="4" fill="#F1F1F1"/>
  <rect x="726" y="474" width="220" height="10" rx="4" fill="#F1F1F1"/>

  <rect x="250" y="620" width="780" height="1" fill="#E7E7E7"/>
  <rect x="746" y="650" width="284" height="92" rx="12" fill="#FAFAFA" stroke="#E2E2E2"/>
  <rect x="776" y="680" width="188" height="12" rx="4" fill="#EDEDED"/>
  <rect x="776" y="705" width="150" height="16" rx="4" fill="#E8E8E8"/>
</svg>
